<svg width="61" height="70" viewBox="0 0 61 70" fill="none" xmlns="http://www.w3.org/2000/svg">
<path d="M60.5383 36.7904C60.5383 43.5087 55.8729 49.4752 48.6573 53.2288C48.9434 52.3399 49.0939 51.417 49.0939 50.469C49.0939 37.6163 36.2128 30.1824 32.0345 28.109C31.2212 27.7055 30.2652 27.7055 29.452 28.109C25.2744 30.1824 12.3933 37.6163 12.3933 50.469C12.3933 51.4139 12.5431 52.3351 12.8276 53.2217C5.61905 49.4673 0.959961 43.5048 0.959961 36.7904C0.959961 15.9262 21.8707 3.85683 28.6528 0.491757C29.9729 -0.163919 31.5254 -0.163919 32.8454 0.491757C39.6276 3.85683 60.5383 15.9262 60.5383 36.7904Z" fill="url(#paint0_linear_4360_14097)"/>
<path d="M30.7493 52.0919C25.8704 52.0919 21.915 54.8226 21.915 58.1916C21.915 64.3788 28.1164 67.9582 30.1275 68.9559C30.5192 69.1506 30.9795 69.1506 31.3711 68.9559C33.3823 67.9582 39.5836 64.3788 39.5836 58.1916C39.5836 54.8226 35.6283 52.0919 30.7493 52.0919ZM31.0189 61.9736C30.851 62.0571 30.654 62.0571 30.4869 61.9736C29.6263 61.5472 26.9729 60.016 26.9729 57.3681C26.9729 55.9275 28.6657 54.7588 30.7525 54.7588C32.8393 54.7588 34.5321 55.9275 34.5321 57.3681C34.5321 60.016 31.8794 61.5472 31.0189 61.9736Z" fill="url(#paint1_linear_4360_14097)"/>
<defs>
<linearGradient id="paint0_linear_4360_14097" x1="30.7491" y1="2.63926" x2="30.7491" y2="53.0137" gradientUnits="userSpaceOnUse">
<stop stop-color="#1896BD"/>
<stop offset="1" stop-color="#094779"/>
</linearGradient>
<linearGradient id="paint1_linear_4360_14097" x1="30.7493" y1="69.1017" x2="30.7493" y2="52.0919" gradientUnits="userSpaceOnUse">
<stop offset="0.09" stop-color="#FFD944"/>
<stop offset="0.85" stop-color="#F4A221"/>
</linearGradient>
</defs>
</svg>
