<svg width="62" height="8" viewBox="0 0 62 8" fill="none" xmlns="http://www.w3.org/2000/svg">
<rect width="62" height="8" fill="#393939"/>
<g id="google-color-icon 1">
<g id="Section 1">
<path d="M-22616 -3874C-22616 -3875.11 -22615.1 -3876 -22614 -3876H18837.8C18839 -3876 18839.8 -3875.1 18839.8 -3874V49370C18839.8 49371.1 18839 49372 18837.8 49372H-22614C-22615.1 49372 -22616 49371.1 -22616 49370V-3874Z" fill="#B8B8B8"/>
<path d="M-22614 -3875H18837.8V-3877H-22614V-3875ZM18838.8 -3874V49370H18840.8V-3874H18838.8ZM18837.8 49371H-22614V49373H18837.8V49371ZM-22615 49370V-3874H-22617V49370H-22615ZM-22614 49371C-22614.6 49371 -22615 49370.6 -22615 49370H-22617C-22617 49371.7 -22615.7 49373 -22614 49373V49371ZM18838.8 49370C18838.8 49370.6 18838.4 49371 18837.8 49371V49373C18839.5 49373 18840.8 49371.7 18840.8 49370H18838.8ZM18837.8 -3875C18838.4 -3875 18838.8 -3874.55 18838.8 -3874H18840.8C18840.8 -3875.66 18839.5 -3877 18837.8 -3877V-3875ZM-22614 -3877C-22615.7 -3877 -22617 -3875.66 -22617 -3874H-22615C-22615 -3874.55 -22614.6 -3875 -22614 -3875V-3877Z" fill="white" fill-opacity="0.1"/>
<g id="Login">
<g clip-path="url(#clip0_1012_310)">
<rect x="-63.2422" y="-93.8047" width="1953.85" height="1099.04" rx="50.8814" fill="#FFEDE1"/>
<rect id="Rectangle 1040" x="-63.2422" y="-93.8047" width="1185.54" height="1099.04" fill="white"/>
<path id="Arrow 6" d="M0.512177 3.52693C0.313473 3.72564 0.313473 4.0478 0.512177 4.2465L3.75025 7.48458C3.94896 7.68328 4.27112 7.68328 4.46983 7.48458C4.66853 7.28588 4.66853 6.96371 4.46983 6.76501L1.59154 3.88672L4.46983 1.00843C4.66853 0.809726 4.66853 0.487562 4.46983 0.288858C4.27112 0.0901537 3.94896 0.0901537 3.75025 0.288858L0.512177 3.52693ZM61.9297 3.3779L0.871964 3.3779V4.39553L61.9297 4.39553V3.3779Z" fill="#272626"/>
</g>
</g>
</g>
</g>
<defs>
<clipPath id="clip0_1012_310">
<rect x="-63.2422" y="-93.8047" width="1953.85" height="1099.04" rx="50.8814" fill="white"/>
</clipPath>
</defs>
</svg>
