<svg width="11" height="20" viewBox="0 0 11 20" fill="none" xmlns="http://www.w3.org/2000/svg">
<rect width="11" height="20" fill="#BCB3B3"/>
<g clip-path="url(#clip0_0_1)">
<rect width="768" height="5370" transform="translate(-185 -5293)" fill="white"/>
<path d="M7.13255 11.0692H6.73255V11.4692V19.3992H3.57065V11.4692V11.0692H3.17065H0.599219V7.94922H3.17065H3.57065V7.54922V4.80522C3.57065 3.40238 4.01739 2.36283 4.7382 1.67287C5.4619 0.980149 6.50442 0.599219 7.76943 0.599219C8.74634 0.599219 9.6803 0.654691 10.1992 0.698345V3.22922H9.1135C8.07588 3.22922 7.4093 3.47697 7.04949 4.00563C6.8781 4.25745 6.80266 4.53814 6.76705 4.80402C6.73253 5.06171 6.73254 5.33292 6.73255 5.57604V5.58922V7.54922V7.94922H7.13255H10.0856L9.29724 11.0692H7.13255Z" stroke="#20248A" stroke-width="0.8"/>
</g>
<defs>
<clipPath id="clip0_0_1">
<rect width="768" height="5370" fill="white" transform="translate(-185 -5293)"/>
</clipPath>
</defs>
</svg>
