<svg width="207" height="167" viewBox="0 0 207 167" fill="none" xmlns="http://www.w3.org/2000/svg">
<path d="M192.549 115.746C191.695 115.548 190.812 115.184 189.947 114.675C189.083 114.166 188.256 113.521 187.513 112.777C186.769 112.034 186.124 111.207 185.615 110.342C185.106 109.478 184.742 108.595 184.544 107.741L169 40.7801L18.5 162.5C16.073 166.927 15.677 166.377 12.025 165.529L7.96731 164.587L4.31533 163.739C4.31533 163.739 0.474921 162.079 0.880688 162.174L157.686 29.4664L90.7252 13.9225C89.0024 13.5224 87.1911 12.4543 85.69 10.9532C84.1889 9.45209 83.1208 7.64089 82.7207 5.91805C82.3207 4.1952 82.6214 2.70185 83.5567 1.7665C84.4921 0.83116 85.9854 0.530443 87.7083 0.930513L203.89 8.6664C204.743 8.86405 214.836 6.64337 183.89 19.167C214.836 6.64308 146.867 35.7015 175.379 23.0879C203.89 10.4743 203.89 10.4743 177.276 25.5228C150.663 40.5713 205.662 7.81332 205.86 8.6664L197.536 110.758C197.735 111.612 197.763 112.418 197.62 113.13C197.477 113.843 197.165 114.448 196.701 114.911C196.238 115.374 195.633 115.687 194.92 115.83C194.208 115.973 193.402 115.944 192.549 115.746Z" fill="#E08470"/>
</svg>
