<svg width="25" height="25" viewBox="0 0 29 28" fill="none" xmlns="http://www.w3.org/2000/svg">
<path d="M26.7692 6.72H21.1923C21.1923 4.93775 20.4872 3.22849 19.2322 1.96824C17.9771 0.707998 16.2749 0 14.5 0C12.7251 0 11.0229 0.707998 9.76782 1.96824C8.51277 3.22849 7.80769 4.93775 7.80769 6.72H2.23077C1.63913 6.72 1.07173 6.956 0.653377 7.37608C0.235027 7.79616 0 8.36592 0 8.96V25.76C0 26.3541 0.235027 26.9238 0.653377 27.3439C1.07173 27.764 1.63913 28 2.23077 28H26.7692C27.3609 28 27.9283 27.764 28.3466 27.3439C28.765 26.9238 29 26.3541 29 25.76V8.96C29 8.36592 28.765 7.79616 28.3466 7.37608C27.9283 6.956 27.3609 6.72 26.7692 6.72ZM14.5 2.24C15.6833 2.24 16.8181 2.712 17.6548 3.55216C18.4915 4.39232 18.9615 5.53183 18.9615 6.72H10.0385C10.0385 5.53183 10.5085 4.39232 11.3452 3.55216C12.1819 2.712 13.3167 2.24 14.5 2.24ZM26.7692 25.76H2.23077V8.96H7.80769V11.2C7.80769 11.497 7.92521 11.7819 8.13438 11.992C8.34356 12.202 8.62726 12.32 8.92308 12.32C9.21889 12.32 9.5026 12.202 9.71177 11.992C9.92095 11.7819 10.0385 11.497 10.0385 11.2V8.96H18.9615V11.2C18.9615 11.497 19.0791 11.7819 19.2882 11.992C19.4974 12.202 19.7811 12.32 20.0769 12.32C20.3727 12.32 20.6564 12.202 20.8656 11.992C21.0748 11.7819 21.1923 11.497 21.1923 11.2V8.96H26.7692V25.76Z" fill="black"/>
</svg>
