<svg width="257" height="61" viewBox="0 0 257 61" fill="none" xmlns="http://www.w3.org/2000/svg">
<path d="M6.43652 59.7987V0H24.798C33.6699 0 41.11 2.86309 47.1181 8.58927C50.039 11.3043 52.352 14.6068 53.9053 18.2796C55.4586 21.9525 56.2169 25.9125 56.1304 29.8994C56.217 33.8862 55.4588 37.8463 53.9055 41.5192C52.3522 45.192 50.0391 48.4945 47.1181 51.2094C41.1086 56.9356 33.6685 59.7987 24.798 59.7987H6.43652Z" fill="#20248A"/>
<path d="M36.4297 6.62678C35.7045 6.31256 34.8749 6.62025 34.0703 8.4751C33.0831 10.7496 14.7651 53.6699 15.1402 53.8319C15.5153 53.9939 35.7045 11.8858 36.6917 9.61236C37.5376 7.66292 37.1527 6.94099 36.4297 6.62678ZM30.4628 20.3805C30.1878 20.2609 32.0622 15.0149 33.5517 11.5738C34.7868 8.72842 35.2467 7.66836 35.8599 7.93473C36.4731 8.20111 36.0132 9.2601 34.7781 12.1065C33.2886 15.5411 30.7379 20.4946 30.4628 20.375" fill="white"/>
<path d="M1.26097 40.8227C4.98697 39.3473 7.61812 36.0704 9.37294 32.5759C11.5279 28.2867 12.4803 23.5246 14.4015 19.1408C16.0215 15.4442 18.4895 11.7812 22.2503 10.0177C25.3685 8.55535 29.5512 8.77171 32.1639 11.1637C35.0646 13.8187 34.2383 18.3167 36.7303 21.2033C37.3628 21.894 38.1344 22.4426 38.9945 22.8131C39.8545 23.1837 40.7834 23.3676 41.7197 23.3528C43.6524 23.3243 45.5168 22.6335 47.0015 21.3958C47.7788 20.7664 48.4729 20.0408 49.0673 19.2365C49.6138 18.5417 50.0536 17.7692 50.372 16.9446C50.8428 15.6344 51.0439 13.8133 49.8806 12.7913C49.6257 12.5854 49.3292 12.4375 49.0115 12.3576C48.6938 12.2778 48.3626 12.268 48.0407 12.3289C47.7189 12.3898 47.4141 12.52 47.1475 12.7104C46.881 12.9008 46.659 13.1469 46.4971 13.4317C46.056 14.0066 45.817 14.7109 45.817 15.4355C45.817 16.16 46.056 16.8644 46.4971 17.4393C47.1055 18.0857 47.8407 18.5996 48.6567 18.9491C49.4727 19.2985 50.352 19.4759 51.2396 19.4702C53.1572 19.5624 55.077 19.3398 56.9227 18.8114C60.6281 17.799 63.9738 15.7644 66.5775 12.9402C67.2184 12.2389 67.8064 11.491 68.3366 10.7027C68.4725 10.5026 68.1746 10.2678 68.0387 10.4733C65.9218 13.5813 62.9632 16.0217 59.5093 17.5088C57.7844 18.2586 55.9604 18.7555 54.0937 18.9842C52.2841 19.2933 50.4258 19.1438 48.6889 18.5493C47.8757 18.243 47.1695 17.7061 46.6568 17.0044C46.4479 16.7013 46.3047 16.3578 46.2366 15.996C46.1684 15.6342 46.1768 15.2622 46.2611 14.9038C46.5156 13.7078 47.6854 12.1976 49.0706 12.7293C50.634 13.3327 50.522 15.3387 50.0872 16.6434C49.7925 17.4659 49.3694 18.2365 48.8335 18.9266C48.2532 19.723 47.5732 20.4417 46.8102 21.0652C45.3243 22.3252 43.4305 23.0011 41.4827 22.9668C40.5443 22.9531 39.6216 22.7239 38.7859 22.297C37.9502 21.87 37.2239 21.2566 36.6629 20.5042C35.7551 18.91 35.1298 17.1709 34.8146 15.3637C34.459 13.6879 33.6387 12.146 32.4476 10.9147C31.1787 9.85154 29.6541 9.13821 28.0248 8.8453C26.3955 8.55239 24.7179 8.69005 23.1582 9.24466C19.5496 10.4298 16.9054 13.5469 15.1321 16.776C12.9456 20.7608 11.9399 25.237 10.3156 29.4523C8.89564 33.1381 6.87008 36.813 3.57463 39.1375C2.80843 39.6774 1.98109 40.1248 1.10984 40.4705C0.888037 40.5651 1.03482 40.9119 1.26097 40.8227Z" fill="white" stroke="white" stroke-width="1.09444" stroke-miterlimit="10"/>
<path d="M83.2372 32.2038V32.3354C83.2443 32.7 83.1658 33.0613 83.0078 33.39V33.4226L82.9741 33.4553C82.916 33.5866 82.8386 33.7086 82.7447 33.8173C82.7452 33.8219 82.7447 33.8265 82.7432 33.8308C82.7416 33.8351 82.7392 33.8391 82.736 33.8423C82.7327 33.8455 82.7288 33.848 82.7244 33.8495C82.7201 33.851 82.7155 33.8515 82.711 33.851L82.6784 33.9163L82.5794 34.0152L82.5131 34.0815L82.4805 34.1141C82.4805 34.1587 82.4685 34.1794 82.4468 34.1794C82.4423 34.179 82.4378 34.1797 82.4336 34.1812C82.4295 34.1828 82.4257 34.1853 82.4226 34.1885C82.4195 34.1918 82.417 34.1956 82.4156 34.1999C82.4142 34.2041 82.4136 34.2086 82.4141 34.2131L82.3489 34.2457L82.3152 34.2783C82.3071 34.2879 82.2972 34.2958 82.286 34.3014C82.2748 34.307 82.2625 34.3103 82.25 34.3109C82.2271 34.3109 82.2174 34.3229 82.2174 34.3446L82.151 34.3772L82.1184 34.4099C82.1102 34.4196 82.1001 34.4276 82.0887 34.4334C82.0773 34.4392 82.0648 34.4427 82.0521 34.4436C82.0477 34.443 82.0432 34.4435 82.039 34.445C82.0348 34.4464 82.031 34.4488 82.0279 34.452C82.0247 34.4551 82.0223 34.4589 82.0209 34.4631C82.0194 34.4673 82.019 34.4718 82.0195 34.4762L81.9531 34.5088C81.9368 34.5282 81.9167 34.5441 81.8941 34.5557C81.8716 34.5673 81.8469 34.5743 81.8216 34.5762L81.7564 34.6088L81.7227 34.6414H81.6574C81.6404 34.6606 81.6167 34.6723 81.5911 34.6741C81.5694 34.6741 81.5574 34.6741 81.5574 34.6904C81.5574 34.7067 81.5466 34.7078 81.5259 34.7078H81.4595C81.4426 34.7264 81.4194 34.738 81.3943 34.7404C81.3712 34.7404 81.3485 34.746 81.328 34.7567C81.3078 34.7669 81.2855 34.7725 81.2628 34.773H81.0964L81.0312 34.8067H80.8333C79.0396 34.9332 77.2411 34.6395 75.5808 33.9489C74.3255 33.3237 73.2102 32.45 72.3027 31.3808C72.2023 31.2529 72.0933 31.132 71.9766 31.0187C71.2082 31.1499 70.5276 32.1158 69.9347 33.9163C68.9688 37.3251 68.4591 40.8469 68.4191 44.3897C68.5952 46.7817 68.6945 48.0661 68.717 48.2429L68.7485 48.506L68.7822 48.605V48.7365C68.7812 49.0488 68.7369 49.3595 68.6507 49.6596C68.4868 50.0773 68.2259 50.45 67.8896 50.7469C67.4185 51.194 66.8399 51.5116 66.2098 51.6689C65.4275 51.8858 64.6174 51.9858 63.8059 51.9657C61.7408 51.9657 60.3901 51.318 59.7537 50.0228C58.9644 48.4419 58.5914 44.1056 58.6349 37.0138C58.5805 33.1218 58.7344 29.2297 59.0959 25.3542C59.1228 25.1142 59.1897 24.8805 59.2938 24.6627C59.4595 24.3373 59.6639 24.0332 59.9027 23.757C60.2804 23.347 60.773 23.0605 61.3161 22.935C62.0851 22.7398 62.8837 22.6893 63.6711 22.7861C64.7468 22.8482 65.7914 23.1701 66.7154 23.7244C67.4568 24.1653 68.0125 24.8609 68.2788 25.6814C68.8099 25.0383 69.4732 24.5171 70.2236 24.1531C70.974 23.7891 71.794 23.591 72.6278 23.5722C73.2102 23.5603 73.7885 23.6714 74.325 23.8983C74.8214 24.1197 75.2565 24.4585 75.5928 24.8856C75.8766 25.2327 76.1405 25.5957 76.3832 25.9728C76.603 26.3451 76.8009 26.7299 76.9758 27.1253C77.3266 27.8277 77.6009 28.3329 77.7988 28.6409C78.0656 29.0066 78.4236 29.296 78.8371 29.4803C79.4295 29.7538 80.078 29.8838 80.73 29.8597H81.0268C81.1079 29.8639 81.1871 29.8862 81.2584 29.925C81.3363 29.9207 81.4142 29.9317 81.4878 29.9576H81.5215C81.7798 30.0558 82.0235 30.189 82.2457 30.3533C82.4554 30.477 82.6351 30.6455 82.7719 30.8469C82.7796 30.8841 82.7968 30.9186 82.8219 30.947C82.8471 30.9811 82.8744 31.0138 82.9034 31.0448L83.0034 31.2427L83.0698 31.3743V31.4069L83.1013 31.4732V31.5058C83.1013 31.5287 83.1078 31.5395 83.1187 31.5395C83.1296 31.5395 83.135 31.5504 83.135 31.5721V31.6374C83.1521 31.6679 83.1628 31.7015 83.1665 31.7363L83.2013 31.7689V31.8353C83.201 31.8583 83.2063 31.881 83.2166 31.9016C83.2274 31.9216 83.233 31.944 83.2328 31.9668V32.1973L83.2372 32.2038Z" fill="#2C3796"/>
<path d="M99.3588 38.367C99.7552 38.0783 100.229 37.9142 100.719 37.8957C101.209 37.8772 101.693 38.0051 102.11 38.263C102.527 38.5209 102.858 38.8972 103.06 39.3438C103.262 39.7905 103.327 40.2873 103.246 40.7709C102.586 43.4921 101.275 46.0122 99.4251 48.1142L99.3936 48.1479C97.7089 50.1485 95.4192 51.5471 92.8701 52.1326C92.2868 52.2712 91.6907 52.3484 91.0914 52.3631H90.7293C86.4477 52.3631 83.253 51.0675 81.1452 48.4762C79.3447 46.2379 78.4445 43.1643 78.4445 39.2553C78.4129 36.9 78.8437 34.5614 79.7122 32.3719C80.4667 30.4322 81.7084 28.7198 83.3175 27.3999C84.3297 26.511 85.538 25.8745 86.8435 25.5425C88.1489 25.2104 89.5145 25.1923 90.8283 25.4896C92.2075 25.769 93.4602 26.4849 94.401 27.5315C95.3345 28.5356 95.9082 29.8213 96.0319 31.1868C96.0525 31.6043 96.0525 32.0218 96.0319 32.4371C95.7419 35.1393 93.8646 37.1268 90.3999 38.3996C89.2357 38.8116 88.034 39.1091 86.812 39.2879C86.7393 41.3954 87.1925 43.4879 88.1308 45.3765C88.3603 45.9496 88.7478 46.4459 89.2482 46.8075C89.7486 47.1692 90.3414 47.3813 90.9577 47.4194C91.2686 47.4067 91.5775 47.3626 91.8796 47.2879C93.4592 46.8246 94.8617 45.894 95.9025 44.6187C96.2956 44.1678 96.6478 43.6827 96.9549 43.1694C96.9582 43.1395 96.9699 43.1113 96.9886 43.0878C97.008 43.0581 97.0301 43.0305 97.0549 43.0052C97.6507 42.0712 98.0951 41.0489 98.3716 39.9761C98.4171 39.654 98.5282 39.3445 98.698 39.067C98.8678 38.7895 99.0927 38.5498 99.3588 38.3626M90.2705 30.6877C89.9762 30.7198 89.6929 30.8179 89.4417 30.9747C89.1906 31.1315 88.9781 31.343 88.8201 31.5934C88.2627 32.3437 87.8396 33.185 87.5698 34.08C87.9725 33.9874 88.3682 33.8665 88.7538 33.7179C90.2477 33.1482 91.0276 32.5553 91.0936 31.9392V31.9065C91.1032 31.8985 91.111 31.8885 91.1166 31.8773C91.1222 31.8661 91.1254 31.8538 91.1262 31.8413C91.0467 31.4398 90.8655 31.0655 90.5999 30.7541C90.4976 30.7075 90.3861 30.6848 90.2738 30.6877" fill="#2C3796"/>
<path d="M119.794 39.7458C120.07 39.9213 120.309 40.1503 120.495 40.4194C120.682 40.6884 120.813 40.9921 120.881 41.3126C120.96 41.6264 120.974 41.953 120.923 42.2726C120.872 42.5922 120.757 42.898 120.584 43.1718C118.833 45.8394 116.338 47.9347 113.408 49.1984C113.441 51.3319 112.919 53.4373 111.894 55.3087C110.974 57.0324 109.533 58.4213 107.776 59.2772C106.67 59.8236 105.452 60.1057 104.219 60.1013C102.129 60.0764 100.11 59.3449 98.49 58.0258C97.6595 57.4374 97.0643 56.5737 96.8102 55.5881C96.4834 54.3084 96.6414 52.953 97.2538 51.7828C97.8876 50.4909 98.9064 49.4273 100.17 48.7385C101.434 48.0639 102.77 47.5339 104.153 47.1587C103.52 45.9361 102.723 44.8058 101.783 43.7991C101.101 42.988 100.58 42.3407 100.219 41.8573C99.8578 41.3738 99.4073 40.6928 98.8673 39.8143C98.3388 38.957 97.9447 38.0238 97.6985 37.0473C97.4533 36.045 97.3317 35.0164 97.3365 33.9845C97.291 31.7063 97.9352 29.4676 99.1847 27.5621C99.8082 26.5856 100.639 25.7581 101.617 25.138C102.596 24.518 103.699 24.1207 104.848 23.9742C105.779 23.7276 106.768 23.8442 107.615 24.3004C108.12 24.5331 108.543 24.9114 108.831 25.3867C109.119 25.862 109.258 26.4125 109.23 26.9674C109.194 27.982 108.81 28.9535 108.143 29.7181C107.385 30.6589 106.485 31.4751 105.476 32.1373V32.1699C105.694 33.0424 106.009 33.8881 106.414 34.6912C106.759 35.4118 107.149 36.11 107.582 36.782C107.932 37.3097 108.448 38.0345 109.13 38.9565C110.391 40.5802 111.473 42.3355 112.358 44.1916C113.992 43.3403 115.377 42.0811 116.381 40.5363C116.556 40.2599 116.785 40.0213 117.054 39.8346C117.323 39.6479 117.626 39.5168 117.946 39.449C118.26 39.3711 118.587 39.3571 118.906 39.4079C119.225 39.4587 119.531 39.5732 119.806 39.7448M103.462 53.4811C103.703 53.1714 103.872 52.8113 103.955 52.4275C103.501 52.5907 103.061 52.7892 102.638 53.0211C102.21 53.2496 101.865 53.6067 101.651 54.0421H101.717C102.03 54.0799 102.348 54.0493 102.648 53.9525C102.949 53.8556 103.224 53.6948 103.457 53.4811" fill="#2C3796"/>
<path d="M137.975 39.7458C138.252 39.9214 138.49 40.1504 138.677 40.4195C138.864 40.6885 138.995 40.9921 139.062 41.3125C139.141 41.6264 139.156 41.953 139.105 42.2725C139.054 42.5921 138.938 42.898 138.766 43.1717C137.015 45.8396 134.52 47.935 131.59 49.1983C131.622 51.3317 131.101 53.437 130.076 55.3087C129.156 57.0323 127.715 58.4212 125.959 59.2771C124.853 59.8233 123.635 60.1054 122.402 60.1013C120.312 60.0764 118.292 59.3448 116.672 58.0257C115.842 57.437 115.246 56.5735 114.992 55.5881C114.665 54.3083 114.823 52.9526 115.437 51.7827C116.07 50.491 117.089 49.4275 118.352 48.7384C119.616 48.0639 120.953 47.5339 122.336 47.1587C121.702 45.9361 120.905 44.8057 119.965 43.7991C119.284 42.988 118.763 42.3407 118.402 41.8572C118.04 41.3738 117.589 40.6928 117.05 39.8143C116.521 38.957 116.127 38.0238 115.88 37.0472C115.635 36.0449 115.514 35.0163 115.519 33.9845C115.474 31.7063 116.118 29.4677 117.368 27.5621C117.991 26.5854 118.822 25.7578 119.801 25.1378C120.779 24.5178 121.883 24.1205 123.032 23.9741C123.962 23.7276 124.951 23.8442 125.798 24.3003C126.303 24.5328 126.726 24.9111 127.014 25.3864C127.302 25.8618 127.441 26.4124 127.413 26.9673C127.377 27.982 126.993 28.9535 126.325 29.7181C125.568 30.6589 124.668 31.4751 123.657 32.1372V32.1698C123.876 33.0422 124.191 33.8878 124.596 34.6912C124.941 35.412 125.331 36.1103 125.764 36.7819C126.114 37.3096 126.631 38.0345 127.313 38.9564C128.574 40.5805 129.656 42.3357 130.541 44.1916C132.174 43.3402 133.56 42.0811 134.563 40.5362C134.739 40.26 134.967 40.0216 135.236 39.8349C135.505 39.6482 135.808 39.517 136.128 39.449C136.442 39.371 136.769 39.357 137.088 39.4078C137.408 39.4586 137.714 39.5732 137.988 39.7447M121.643 53.481C121.884 53.1715 122.053 52.8113 122.136 52.4275C121.682 52.5904 121.242 52.7889 120.82 53.0211C120.391 53.2492 120.045 53.6064 119.831 54.042H119.898C120.211 54.0799 120.529 54.0494 120.829 53.9525C121.129 53.8557 121.405 53.6948 121.637 53.481" fill="#2C3796"/>
<path d="M183.998 30.0665C181.305 30.0556 178.669 30.8431 176.424 32.3293C174.179 33.8156 172.424 35.9341 171.382 38.4171C170.34 40.9001 170.057 43.6362 170.569 46.2798C171.082 48.9235 172.366 51.356 174.26 53.2701C176.154 55.1842 178.573 56.494 181.211 57.034C183.849 57.574 186.588 57.32 189.082 56.3042C191.576 55.2883 193.712 53.5561 195.222 51.3264C196.732 49.0967 197.547 46.4695 197.565 43.7768C197.592 41.9809 197.26 40.1977 196.59 38.5315C195.919 36.8653 194.923 35.3495 193.66 34.0729C192.397 32.7962 190.892 31.7843 189.233 31.0964C187.574 30.4085 185.794 30.0584 183.998 30.0665ZM180.62 42.5699C180.168 42.5699 179.727 42.436 179.351 42.1851C178.976 41.9342 178.683 41.5776 178.51 41.1604C178.338 40.7432 178.292 40.2842 178.38 39.8413C178.469 39.3984 178.686 38.9915 179.005 38.6722C179.325 38.3529 179.731 38.1354 180.174 38.0473C180.617 37.9592 181.076 38.0045 181.494 38.1773C181.911 38.3501 182.267 38.6427 182.518 39.0182C182.769 39.3937 182.903 39.8351 182.903 40.2867C182.903 40.8922 182.662 41.473 182.234 41.9012C181.806 42.3294 181.225 42.5699 180.62 42.5699ZM187.273 42.5699C186.821 42.5699 186.38 42.436 186.004 42.1851C185.629 41.9342 185.336 41.5776 185.163 41.1604C184.99 40.7432 184.945 40.2842 185.033 39.8413C185.121 39.3984 185.339 38.9915 185.658 38.6722C185.978 38.3529 186.384 38.1354 186.827 38.0473C187.27 37.9592 187.729 38.0045 188.146 38.1773C188.564 38.3501 188.92 38.6427 189.171 39.0182C189.422 39.3937 189.556 39.8351 189.556 40.2867C189.556 40.8922 189.315 41.473 188.887 41.9012C188.459 42.3294 187.878 42.5699 187.273 42.5699ZM180.62 49.3978C180.168 49.3978 179.727 49.2639 179.351 49.013C178.976 48.7622 178.683 48.4056 178.51 47.9884C178.338 47.5712 178.292 47.1121 178.38 46.6692C178.469 46.2263 178.686 45.8194 179.005 45.5001C179.325 45.1808 179.731 44.9634 180.174 44.8753C180.617 44.7872 181.076 44.8324 181.494 45.0052C181.911 45.178 182.267 45.4707 182.518 45.8461C182.769 46.2216 182.903 46.663 182.903 47.1146C182.903 47.7202 182.662 48.3009 182.234 48.7291C181.806 49.1573 181.225 49.3978 180.62 49.3978ZM187.273 49.3978C186.821 49.3978 186.38 49.2639 186.004 49.013C185.629 48.7622 185.336 48.4056 185.163 47.9884C184.99 47.5712 184.945 47.1121 185.033 46.6692C185.121 46.2263 185.339 45.8194 185.658 45.5001C185.978 45.1808 186.384 44.9634 186.827 44.8753C187.27 44.7872 187.729 44.8324 188.146 45.0052C188.564 45.178 188.92 45.4707 189.171 45.8461C189.422 46.2216 189.556 46.663 189.556 47.1146C189.556 47.7202 189.315 48.3009 188.887 48.7291C188.459 49.1573 187.878 49.3978 187.273 49.3978Z" fill="#DB3804"/>
<path d="M168.877 43.4548V43.5505C169.035 45.1397 168.79 46.7428 168.165 48.2126C167.513 49.8058 166.545 51.2504 165.319 52.4594C162.209 55.5037 158.117 57.0258 153.043 57.0258C148.636 57.1628 144.354 55.5563 141.124 52.5551C138.89 50.5002 137.213 47.9129 136.249 45.0346C135.287 42.3258 134.829 39.4637 134.899 36.5899C135.036 32.7501 136.02 28.988 137.781 25.5728C139.412 22.3194 141.775 19.4884 144.684 17.3021C146.845 15.6745 149.295 14.4718 151.904 13.7577C154.463 13.0564 157.136 12.8716 159.767 13.2141C160.937 13.3052 162.063 13.6931 163.041 14.3411C164.018 14.9891 164.814 15.8758 165.354 16.9172C166.017 18.1706 166.29 19.5942 166.138 21.0042C165.975 22.5279 165.436 23.9873 164.57 25.251C164.506 25.3708 164.423 25.4789 164.323 25.5706L164.286 25.6033C163.964 25.9374 163.559 26.1796 163.113 26.3045H163.042L163.005 26.3372H162.969C162.9 26.3624 162.826 26.3731 162.752 26.3687L162.718 26.4013H161.899L161.827 26.3687L161.756 26.3372H161.614C161.58 26.3196 161.543 26.3086 161.505 26.3045C161.455 26.3107 161.405 26.2996 161.362 26.273C161.34 26.273 161.327 26.2632 161.327 26.2415L161.256 26.2089H161.184C161.142 26.1997 161.104 26.1777 161.075 26.1458C161.031 26.1383 160.988 26.1217 160.95 26.0969C160.906 26.0753 160.864 26.0487 160.826 26.0175H160.792L160.756 25.986L160.686 25.9218C160.672 25.9218 160.659 25.9189 160.646 25.9135C160.634 25.9081 160.623 25.9002 160.613 25.8903L160.576 25.8588C160.567 25.8489 160.556 25.841 160.544 25.8354C160.532 25.8298 160.519 25.8266 160.506 25.8261L160.435 25.762C160.266 25.6162 160.121 25.4436 160.008 25.251H159.973L159.937 25.1868C159.927 25.1793 159.919 25.1698 159.913 25.159C159.907 25.1481 159.903 25.1361 159.902 25.1238V25.0912C159.892 25.0839 159.883 25.0744 159.876 25.0633C159.87 25.0522 159.866 25.0398 159.865 25.027C159.865 25.0074 159.86 24.9955 159.847 24.9955C159.834 24.9955 159.832 24.9857 159.832 24.964C159.832 24.9422 159.824 24.9313 159.814 24.9313C159.804 24.9313 159.795 24.9216 159.795 24.8998C159.79 24.8655 159.778 24.8327 159.759 24.8041L159.65 24.4214V24.3257C159.65 24.3051 159.637 24.2931 159.613 24.2931V23.6897C159.623 23.6821 159.632 23.6725 159.638 23.6614C159.644 23.6504 159.649 23.6382 159.65 23.6256V23.5929L159.685 23.5603V23.4973C159.686 23.4699 159.692 23.4429 159.703 23.4179C159.713 23.392 159.718 23.3649 159.721 23.3374C159.718 23.3148 159.719 23.2918 159.725 23.2698C159.731 23.2478 159.741 23.2272 159.755 23.2091L159.791 23.1461L159.828 23.0819V23.0504C159.83 23.0252 159.838 23.0008 159.85 22.9787C159.862 22.9565 159.879 22.9373 159.899 22.9221C160.353 22.1788 160.638 21.3448 160.734 20.4791C160.793 19.7238 160.693 19.2291 160.432 18.995C160.216 18.7409 159.94 18.5438 159.63 18.4211C159.32 18.2985 158.984 18.2539 158.653 18.2915C156.678 18.2863 154.749 18.8824 153.121 20.0007C151.399 21.1667 149.969 22.7126 148.939 24.5193C147.806 26.4965 146.945 28.6177 146.379 30.8253C145.762 33.1543 145.45 35.5537 145.453 37.9631C145.306 41.4611 146.131 44.9312 147.837 47.9886C148.408 49.0823 149.267 49.9993 150.32 50.6408C151.374 51.2823 152.583 51.6239 153.817 51.6287C156.42 51.783 158.986 50.9507 161.003 49.2977C161.849 48.5558 162.507 47.6244 162.925 46.5796C163.305 45.6681 163.51 44.6933 163.529 43.706V43.6733C163.532 43.6366 163.538 43.6002 163.548 43.5646C163.556 43.5288 163.562 43.4925 163.565 43.4559V43.3287L163.6 43.2645V43.1047C163.6 43.083 163.608 43.0732 163.618 43.0732C163.629 43.0732 163.636 43.0612 163.636 43.0406C163.636 43.0199 163.641 43.009 163.655 43.009C163.67 43.009 163.673 42.9873 163.673 42.9449L163.708 42.8807L163.743 42.8481V42.7166C163.743 42.6959 163.749 42.685 163.76 42.685C163.771 42.685 163.778 42.6742 163.778 42.6524C163.778 42.6307 163.791 42.6209 163.814 42.6209C163.837 42.6209 163.849 42.61 163.849 42.5894C163.849 42.5687 163.857 42.5567 163.867 42.5567C163.878 42.5567 163.885 42.547 163.885 42.5252C163.888 42.4998 163.901 42.4767 163.922 42.4611C163.932 42.4534 163.94 42.4438 163.946 42.4327C163.952 42.4217 163.956 42.4094 163.957 42.3969V42.3654L163.992 42.3338C164.019 42.3099 164.042 42.2833 164.063 42.2545C164.084 42.2254 164.108 42.1984 164.134 42.174C164.255 42.0458 164.386 41.9283 164.527 41.8228L164.598 41.7587C164.598 41.738 164.61 41.7272 164.632 41.7272C164.659 41.7259 164.684 41.7147 164.704 41.6956C164.722 41.6764 164.747 41.6648 164.774 41.663C164.803 41.6318 164.841 41.6098 164.883 41.6L164.954 41.5673C164.973 41.5483 164.998 41.537 165.025 41.5358H165.061L165.096 41.5043H165.132C165.155 41.5043 165.169 41.5043 165.169 41.4869C165.169 41.4695 165.18 41.4717 165.203 41.4717L165.24 41.4401L165.274 41.4086H165.418L165.452 41.376L165.489 41.3445H165.63C165.649 41.3252 165.674 41.3136 165.701 41.3118H165.843C165.881 41.3083 165.918 41.2976 165.952 41.2803H166.488C166.703 41.3085 166.917 41.3513 167.127 41.4086C167.169 41.4129 167.211 41.4236 167.25 41.4401C167.295 41.4541 167.338 41.4758 167.376 41.5043C167.41 41.533 167.447 41.5592 167.485 41.5826C167.516 41.6084 167.553 41.6253 167.593 41.6315C167.593 41.6532 167.605 41.663 167.628 41.663C167.671 41.672 167.709 41.6945 167.737 41.7272C167.785 41.7272 167.809 41.738 167.809 41.7587C167.91 41.8254 168.006 41.9003 168.095 41.9827L168.128 42.0142C168.148 42.0339 168.174 42.0456 168.201 42.0468C168.224 42.0468 168.236 42.0577 168.236 42.0783C168.236 42.099 168.259 42.1316 168.309 42.174C168.309 42.2175 168.32 42.2382 168.343 42.2382C168.365 42.2382 168.38 42.249 168.38 42.2697C168.38 42.2822 168.384 42.2943 168.389 42.3054C168.395 42.3165 168.403 42.3262 168.413 42.3338C168.421 42.3705 168.44 42.4039 168.468 42.4295C168.494 42.4637 168.524 42.4957 168.556 42.5252C168.556 42.547 168.568 42.5567 168.592 42.5567L168.626 42.6209V42.6524C168.626 42.6742 168.633 42.685 168.646 42.685C168.657 42.685 168.663 42.6959 168.663 42.7166C168.663 42.7372 168.669 42.7481 168.681 42.7481C168.693 42.7481 168.697 42.7601 168.697 42.7807C168.702 42.8148 168.715 42.8475 168.734 42.8764L168.769 42.909V43.0047L168.807 43.0362V43.1004C168.806 43.1227 168.811 43.1448 168.822 43.1645C168.834 43.1837 168.84 43.206 168.839 43.2287C168.845 43.2631 168.858 43.2958 168.877 43.3243V43.4548Z" fill="#DF3701"/>
<path d="M231.259 42.8957C231.832 42.5021 232.527 42.3261 233.218 42.3995C233.91 42.4728 234.552 42.7907 235.03 43.2958C235.251 43.5261 235.416 43.8045 235.512 44.1091C235.607 44.4138 235.631 44.7365 235.58 45.0518C235.397 46.3784 235.063 47.6799 234.585 48.931C234.072 50.2902 233.416 51.5906 232.627 52.8103C231.826 54.0624 230.757 55.1204 229.496 55.9079C228.256 56.7061 226.81 57.1279 225.335 57.1224C224.3 57.1257 223.278 56.898 222.342 56.456C221.406 56.014 220.58 55.3688 219.925 54.5674C218.804 53.2118 217.958 51.6497 217.436 49.9694C214.993 54.3118 212.17 56.4831 208.968 56.4831C207.627 56.5073 206.298 56.23 205.079 55.6717C203.859 55.1133 202.781 54.2882 201.924 53.2572C200.001 51.0226 199.04 47.9253 199.04 43.9656C198.948 39.634 200.513 35.4308 203.416 32.2146C204.631 30.86 206.085 29.74 207.705 28.9104C209.124 28.153 210.703 27.7431 212.312 27.7145C213.316 27.7166 214.308 27.9231 215.229 28.3211C215.374 22.4457 215.778 18.2945 216.439 15.8678C216.558 15.4516 216.766 15.0661 217.049 14.7382C217.331 14.4102 217.682 14.1475 218.076 13.9684C218.897 13.5256 219.811 13.2849 220.744 13.266C221.646 13.2551 222.452 13.2823 223.165 13.3454C224.142 13.4441 225.051 13.8919 225.725 14.6066C225.983 14.8903 226.175 15.2284 226.286 15.5961C226.397 15.9637 226.425 16.3515 226.366 16.7311C225.314 23.5976 224.624 30.5149 224.3 37.454C224.122 40.8958 224.241 44.3464 224.656 47.7677C225.011 50.1314 225.485 51.581 226.079 52.1167C226.633 51.8314 227.114 51.4222 227.485 50.9207C228.121 50.1822 228.653 49.3607 229.068 48.4788V48.4461H229.105C229.677 47.2003 230.06 45.8765 230.242 44.5179C230.288 44.1929 230.402 43.8813 230.577 43.6034C230.752 43.3256 230.983 43.0877 231.256 42.9055M212.915 47.3284C214.016 45.2167 214.91 43.0028 215.583 40.718C215.438 39.3132 215.332 37.8128 215.264 36.2168C215.123 35.6889 214.932 35.1755 214.693 34.6837C214.434 34.1961 214.105 33.7495 213.715 33.3584C213.473 33.067 213.161 32.8424 212.808 32.706C212.228 33.1667 211.765 33.7574 211.456 34.4304C210.815 35.6393 210.336 36.9276 210.033 38.2619C209.128 41.4178 208.969 44.7411 209.57 47.9688C209.654 48.8346 210.03 49.646 210.638 50.2684C211.574 49.4409 212.346 48.4452 212.915 47.3328" fill="#DF3701"/>
<path d="M252.356 43.1054C252.946 42.7225 253.657 42.574 254.35 42.689C255.033 42.769 255.658 43.1132 256.09 43.6479C256.296 43.8921 256.445 44.1796 256.524 44.489C256.604 44.7985 256.613 45.1219 256.551 45.4353C256.155 47.1423 255.415 48.7505 254.376 50.1616C253.816 51.0299 253.16 51.8323 252.419 52.5536L252.386 52.5851C250.49 54.566 248.03 55.9152 245.34 56.4492C244.708 56.5838 244.065 56.6584 243.419 56.6721H243.028C238.403 56.6721 234.951 55.4163 232.674 52.9048C230.728 50.7303 229.756 47.7497 229.756 43.9632C229.724 41.6658 230.192 39.389 231.126 37.2897C231.975 35.3667 233.319 33.7033 235.021 32.4688C236.161 31.5957 237.476 30.9787 238.876 30.6597C240.276 30.3408 241.729 30.3274 243.134 30.6205C244.591 30.8747 245.937 31.5651 246.994 32.6004C247.984 33.5351 248.608 34.7916 248.756 36.1448C248.779 36.5489 248.779 36.954 248.756 37.3582C248.446 39.9763 246.417 41.9029 242.668 43.138C241.403 43.5389 240.104 43.8274 238.788 44.0002C238.714 46.0624 239.206 48.1056 240.213 49.9072C240.495 50.4837 240.929 50.9725 241.468 51.3212C242.007 51.67 242.631 51.8656 243.272 51.8871C243.608 51.8752 243.942 51.8326 244.269 51.7599C245.935 51.3329 247.442 50.4344 248.61 49.1722C249.031 48.7398 249.412 48.2696 249.747 47.7675C249.75 47.738 249.763 47.7103 249.783 47.6881C249.804 47.6586 249.828 47.6316 249.856 47.6077C250.492 46.7165 250.973 45.724 251.278 44.6721C251.333 44.3502 251.457 44.044 251.641 43.774C251.825 43.5041 252.065 43.2769 252.344 43.1075M242.525 35.6664C242.217 35.6928 241.917 35.7848 241.647 35.9363C241.377 36.0878 241.142 36.2953 240.959 36.5449C240.364 37.2584 239.906 38.0756 239.607 38.9553C240.041 38.8664 240.468 38.7491 240.887 38.6042C242.5 38.0518 243.343 37.4771 243.415 36.8798V36.8461C243.425 36.8386 243.433 36.829 243.439 36.8179C243.445 36.8068 243.449 36.7945 243.45 36.7819C243.359 36.3859 243.162 36.0218 242.881 35.7284C242.768 35.6824 242.647 35.6605 242.525 35.6642" fill="#DF3701"/>
</svg>
